<svg width="40" height="40" viewBox="0 0 40 40" fill="none" xmlns="http://www.w3.org/2000/svg"><path d="M0 40V0h40v40l-20-5-20 5z" fill="#FEF0C7"/><path d="M17.5 11.667h9.167c.46 0 .833.373.833.833V25h-1.667V13.333H17.5v-1.666z" fill="#002033"/><path d="M14.167 15h9.166c.46 0 .834.373.834.833V27.5c0 .46-.373.833-.834.833h-2.5v-1.666H22.5v-10h-8.333V15z" fill="#002033"/><path fill-rule="evenodd" clip-rule="evenodd" d="M15.833 28.333v-1.666h3.334V25h-3.334v-1.667h2.5a2.5 2.5 0 000-5h-4.166v3.334H12.5v1.666h1.667V25H12.5v1.667h1.667v1.666h1.666zm2.5-6.666a.833.833 0 100-1.667h-2.5v1.667h2.5z" fill="#002033"/></svg>