<svg width="40" height="40" viewBox="0 0 40 40" fill="none" xmlns="http://www.w3.org/2000/svg"><path d="M0 40V0h40v40l-20-5-20 5z" fill="#D1FADF"/><path fill-rule="evenodd" clip-rule="evenodd" d="M20 11.667A4.167 4.167 0 1020 20a4.167 4.167 0 000-8.333zm-2.5 4.166a2.5 2.5 0 115 0 2.5 2.5 0 01-5 0z" fill="#002033"/><path d="M20 20.833h-.345l-6.91 6.911 1.178 1.179 6.413-6.413c3.157.182 5.08 2.926 5.08 5.823h1.667c0-3.668-2.574-7.5-7.083-7.5zM15.417 21.458a1.458 1.458 0 11-2.917 0 1.458 1.458 0 012.917 0z" fill="#002033"/><path d="M20.625 28.75a1.458 1.458 0 100-2.917 1.458 1.458 0 000 2.917z" fill="#002033"/></svg>