<svg width="40" height="40" viewBox="0 0 40 40" fill="none" xmlns="http://www.w3.org/2000/svg"><path d="M0 40V0h40v40l-20-5-20 5z" fill="#E4E7EC"/><path d="M19.602 16.288a.417.417 0 01.796 0l.495 1.601a.417.417 0 00.398.294h1.644c.399 0 .57.506.253.748l-1.365 1.043a.417.417 0 00-.146.454l.513 1.66c.12.387-.328.7-.65.454l-1.287-.983a.417.417 0 00-.506 0l-1.286.983a.417.417 0 01-.651-.454l.513-1.66a.417.417 0 00-.145-.454l-1.366-1.043a.417.417 0 01.253-.748h1.644c.183 0 .344-.12.398-.294l.495-1.6z" fill="#002033"/><path fill-rule="evenodd" clip-rule="evenodd" d="M20.397 11.975a.851.851 0 00-.845 0 4.485 4.485 0 01-.202.108c-.417.209-1.042.417-1.875.417-.834 0-1.667-.208-2.292-.417-.184-.06-.365-.129-.545-.2a.837.837 0 00-.898.185l-1.551 1.55a.836.836 0 00-.066 1.104c.122.159.24.32.352.486.416.625.833 1.458.833 2.292 0 .833-.208 1.25-.417 1.667l-.015.03c-.086.173-.195.39-.274.657a3.379 3.379 0 00-.127.98c0 2.915 1.873 4.79 3.75 5.937a13.79 13.79 0 002.578 1.21 13.395 13.395 0 00.958.299l.214.057.214-.057.108-.03a13.787 13.787 0 003.428-1.48c1.876-1.146 3.75-3.021 3.75-5.937 0-.383-.043-.694-.128-.98a3.887 3.887 0 00-.273-.655l-.016-.031c-.208-.417-.417-.834-.417-1.667 0-.834.417-1.667.834-2.292.11-.166.23-.327.351-.486a.836.836 0 00-.066-1.103l-1.55-1.55a.839.839 0 00-.9-.185c-.18.07-.36.138-.544.2-.625.208-1.458.416-2.291.416-.834 0-1.459-.208-1.875-.417a4.489 4.489 0 01-.203-.108zm.196 14.435c-.244.086-.455.151-.618.2a12.123 12.123 0 01-2.88-1.26c-1.649-1.008-2.954-2.438-2.954-4.517 0-.253.028-.401.059-.506.034-.115.081-.213.175-.402l.007-.013c.256-.511.593-1.201.593-2.412 0-1.327-.634-2.495-1.106-3.204l.67-.67.117.038c.708.236 1.733.503 2.819.503a5.86 5.86 0 002.5-.535 5.86 5.86 0 002.5.535c1.085 0 2.11-.267 2.818-.503l.116-.039.671.67c-.471.71-1.105 1.878-1.105 3.205 0 1.21.337 1.9.592 2.412l.007.013c.094.189.141.287.175.402.032.105.059.253.059.506 0 2.08-1.305 3.509-2.952 4.516-.81.494-1.634.84-2.263 1.06z" fill="#002033"/></svg>