<svg width="40" height="40" viewBox="0 0 40 40" fill="none" xmlns="http://www.w3.org/2000/svg"><path d="M0 40V0h40v40l-20-5-20 5z" fill="#E0F2FE"/><path d="M27.5 13.333h-6.667A1.666 1.666 0 0019.167 15H17.5a3.334 3.334 0 013.333-3.333H27.5v1.666z" fill="#002033"/><path fill-rule="evenodd" clip-rule="evenodd" d="M15.127 16.667h6.412l.278 1.666h3.033l1.667 8.334h1.816v1.666H11.667v-1.666h1.794l1.666-10zm8.08 10h1.61L23.484 20h-1.39l1.112 6.667zm-3.08-8.334l1.39 8.334H15.15L15.428 25h3.739v-1.667h-3.46l.832-5h3.588z" fill="#002033"/><path d="M23.333 16.667h5V15h-5v1.667z" fill="#002033"/></svg>