<svg width="40" height="40" viewBox="0 0 40 40" fill="none" xmlns="http://www.w3.org/2000/svg">
<path d="M0 40V0h40v40l-20-5-20 5z" fill="#E0F2FE"/>
<path fill-rule="evenodd" clip-rule="evenodd" d="M12.5 13.333a3.333 3.333 0 116.667 0 3.333 3.333 0 01-6.667 0zm3.333-1.666a1.667 1.667 0 100 3.333 1.667 1.667 0 000-3.333z" fill="#002033"/>
<path d="M10.833 20.833c0-1.38 1.12-2.5 2.5-2.5h3.334c1.38 0 2.5 1.12 2.5 2.5v.834h-8.334v-.834z" fill="#002033"/>
<path fill-rule="evenodd" clip-rule="evenodd" d="M22.5 13.333a3.333 3.333 0 116.667 0 3.333 3.333 0 01-6.667 0zm3.333-1.666a1.667 1.667 0 100 3.333 1.667 1.667 0 000-3.333z" fill="#002033"/>
<path d="M20.833 20.833c0-1.38 1.12-2.5 2.5-2.5h3.334c1.38 0 2.5 1.12 2.5 2.5v.834h-8.334v-.834z" fill="#002033"/>
<path d="M15.833 25.833h8.334v1.667h-8.334v-1.667z" fill="#002033"/>
<path d="M15.833 28.333h8.334v1.667h-8.334v-1.667z" fill="#002033"/>
<path d="M15.833 30.833h5.834v1.667h-5.834v-1.667z" fill="#002033"/>
</svg>
