<svg width="40" height="40" viewBox="0 0 40 40" fill="none" xmlns="http://www.w3.org/2000/svg"><path d="M0 40V0h40v40l-20-5-20 5z" fill="#E0F2FE"/><path fill-rule="evenodd" clip-rule="evenodd" d="M23.75 12.5a3.75 3.75 0 100 7.5 3.75 3.75 0 000-7.5zm-2.083 3.75a2.083 2.083 0 114.166 0 2.083 2.083 0 01-4.166 0z" fill="#002033"/><path d="M23.75 20.833c-3.675 0-5.833 2.946-5.833 5.834h1.666c0-2.112 1.55-4.167 4.167-4.167s4.167 2.055 4.167 4.167h1.666c0-2.888-2.158-5.834-5.833-5.834zM10.417 27.5c0-2.816 1.94-5.833 5.417-5.833.83 0 1.59.177 2.263.497l-.716 1.505a3.568 3.568 0 00-1.547-.336c-2.292 0-3.75 1.983-3.75 4.167h-1.667z" fill="#002033"/><path fill-rule="evenodd" clip-rule="evenodd" d="M15.833 14.167a3.333 3.333 0 100 6.666 3.333 3.333 0 000-6.666zM14.167 17.5a1.667 1.667 0 113.333 0 1.667 1.667 0 01-3.333 0z" fill="#002033"/></svg>