<svg width="40" height="40" viewBox="0 0 40 40" fill="none" xmlns="http://www.w3.org/2000/svg"><path d="M0 40V0h40v40l-20-5-20 5z" fill="#EBE9FE"/><path d="M12.5 10.833a.833.833 0 00-.833.834V25h1.666V12.5h10.834v-1.667H12.5z" fill="#002033"/><path d="M18.333 17.5H25v1.667h-6.667V17.5z" fill="#002033"/><path fill-rule="evenodd" clip-rule="evenodd" d="M15.833 14.167A.833.833 0 0015 15v13.333c0 .46.373.834.833.834H27.5c.46 0 .833-.373.833-.834V15a.833.833 0 00-.833-.833H15.833zm.834 13.333V15.833h10V27.5h-10z" fill="#002033"/></svg>