<svg width="40" height="40" viewBox="0 0 40 40" fill="none" xmlns="http://www.w3.org/2000/svg"><path d="M0 40V0h40v40l-20-5-20 5z" fill="#FEE4E2"/><path d="M15.833 20a.833.833 0 110 1.667.833.833 0 010-1.667zM18.333 20.833a.833.833 0 101.667 0 .833.833 0 00-1.667 0zM15 23.333l-.372.746h.002l.005.003.016.008a13.677 13.677 0 00.977.434c.276.11.59.225.901.314.298.085.646.162.971.162.325 0 .674-.077.971-.162.31-.089.625-.204.901-.314a14.911 14.911 0 00.977-.434l.017-.008.004-.002.003-.001-.373-.746-.373-.745-.002.001-.012.006-.049.024-.187.088c-.16.074-.38.172-.624.27a7.906 7.906 0 01-.74.258 2.13 2.13 0 01-.513.098c-.092 0-.264-.027-.513-.098a7.894 7.894 0 01-.74-.259 13.389 13.389 0 01-.811-.357l-.05-.024-.01-.006-.003-.001-.373.745zM24.167 16.667a.833.833 0 110-1.667.833.833 0 010 1.667z" fill="#002033"/><path fill-rule="evenodd" clip-rule="evenodd" d="M16.667 12.5c0-.46.373-.833.833-.833h10c.46 0 .833.373.833.833v5.833c0 1.428-.474 2.883-1.46 3.991-.887.999-2.155 1.677-3.753 1.816a5.758 5.758 0 01-1.247 2.351c-1 1.124-2.48 1.842-4.373 1.842-1.893 0-3.373-.718-4.373-1.842-.985-1.109-1.46-2.564-1.46-3.991v-5c0-.46.373-.833.833-.833h4.167V12.5zm-3.334 5.833V22.5c0 1.072.359 2.118 1.04 2.884.667.75 1.687 1.283 3.127 1.283 1.44 0 2.46-.532 3.127-1.283.335-.377.593-.822.767-1.304.18-.498.273-1.035.273-1.58v-4.167h-8.334zm10 4.103V20.2c.14.048.282.102.42.157a13.321 13.321 0 01.812.358l.048.023.012.006.003.001L25 20l.373-.745-.003-.002-.004-.002-.017-.008-.024-.012-.036-.017a13.72 13.72 0 00-.917-.404 9.51 9.51 0 00-1.039-.352V17.5a.833.833 0 00-.833-.833h-1.667a.833.833 0 100-1.667.833.833 0 000 1.667h-2.5v-3.334h8.334v5c0 1.073-.359 2.118-1.04 2.884-.53.597-1.283 1.056-2.294 1.219z" fill="#002033"/></svg>