<svg width="40" height="40" viewBox="0 0 40 40" fill="none" xmlns="http://www.w3.org/2000/svg"><path d="M0 40V0h40v40l-20-5-20 5z" fill="#EBE9FE"/><path d="M15 19.167v1.666h10v-1.666H15z" fill="#002033"/><path fill-rule="evenodd" clip-rule="evenodd" d="M17.5 12.5c-.92 0-1.667.746-1.667 1.667v1.666H12.5a.833.833 0 00-.833.834v10c0 .46.373.833.833.833h15c.46 0 .833-.373.833-.833v-10a.833.833 0 00-.833-.834h-3.333v-1.666c0-.92-.746-1.667-1.667-1.667h-5zm5 3.333v-1.666h-5v1.666h5zm-9.167 10V17.5h13.334v8.333H13.333z" fill="#002033"/></svg>