<svg width="40" height="40" viewBox="0 0 40 40" fill="none" xmlns="http://www.w3.org/2000/svg"><g clip-path="url(#prefix__clip0_1_2)"><path d="M0 40V0h40v40l-20-5-20 5z" fill="#E4E7EC"/><path fill-rule="evenodd" clip-rule="evenodd" d="M20 30c-5.523 0-10-4.477-10-10s4.477-10 10-10 10 4.477 10 10-4.477 10-10 10zm0-2a8 8 0 100-16.001A8 8 0 0020 28z" fill="#002033"/><path d="M21 19.586V15h-2v4.586A2 2 0 0019.586 21l3.207 3.207 1.414-1.414L21 19.586z" fill="#002033"/></g><defs><clipPath id="prefix__clip0_1_2"><path fill="#fff" d="M0 0h40v40H0z"/></clipPath></defs></svg>